<?xml version="1.0" encoding="UTF-8"?>
<svg xmlns="http://www.w3.org/2000/svg" xmlns:xlink="http://www.w3.org/1999/xlink" width="613.19pt" height="161.17pt" viewBox="0 0 613.19 161.17" version="1.1">
<defs>
<clipPath id="clip1">
  <path d="M 517 2 L 613.191406 2 L 613.191406 120 L 517 120 Z M 517 2 "/>
</clipPath>
<clipPath id="clip2">
  <path d="M 197 139 L 222 139 L 222 161.171875 L 197 161.171875 Z M 197 139 "/>
</clipPath>
</defs>
<g id="surface1">
<path style=" stroke:none;fill-rule:nonzero;fill:rgb(0%,19.599915%,58.399963%);fill-opacity:1;" d="M 355.765625 72.296875 L 365.039063 72.296875 C 373.597656 72.296875 380.8125 74.664063 380.8125 81.273438 C 380.8125 87.691406 379.796875 95.28125 357.136719 95.28125 L 351.710938 95.28125 Z M 363.960938 27.039063 C 368.734375 27.039063 378.773438 26.089844 378.445313 35.089844 C 377.976563 48.027344 367.722656 49.367188 359.800781 48.601563 L 363.738281 27.039063 Z M 391.421875 56.011719 C 397.296875 52.433594 403.933594 43.4375 404.964844 37.613281 C 406.636719 28.109375 406.035156 20.816406 401.28125 14.828125 C 392.1875 3.378906 381.097656 2.421875 360.121094 2.421875 L 340.011719 2.421875 L 339.394531 5.914063 L 320.199219 114.757813 L 319.328125 119.71875 L 355.34375 119.71875 C 385.058594 119.71875 405.066406 106.882813 408.859375 85.386719 C 411.066406 72.871094 406.113281 62.269531 391.421875 56.011719 "/>
<path style=" stroke:none;fill-rule:nonzero;fill:rgb(0%,19.599915%,58.399963%);fill-opacity:1;" d="M 476.554688 97.136719 C 463.800781 97.136719 453.21875 92.898438 446.761719 85.199219 C 441.425781 78.839844 439.316406 70.648438 440.816406 62.132813 C 444.386719 41.894531 466.910156 25.433594 491.027344 25.433594 C 500.953125 25.433594 510.191406 29.191406 518.480469 36.609375 L 524.140625 41.675781 L 525.460938 34.191406 L 529.289063 12.449219 L 529.804688 9.550781 L 527.257813 8.066406 C 517.824219 2.5625 507.746094 0.00390625 495.550781 0.00390625 C 476.167969 0.00390625 457.046875 6.117188 441.703125 17.222656 C 425.996094 28.585938 415.703125 44.183594 412.710938 61.136719 C 410.058594 76.171875 413.738281 90.574219 423.066406 101.695313 C 434.300781 115.085938 452.785156 122.765625 473.785156 122.765625 C 485.375 122.765625 497.617188 119.933594 509.191406 114.570313 L 511.171875 113.652344 L 511.574219 111.511719 L 515.792969 88.996094 L 517.671875 78.972656 L 509.253906 84.726563 C 496.691406 93.308594 486.605469 97.136719 476.554688 97.136719 "/>
<g clip-path="url(#clip1)" clip-rule="nonzero">
<path style=" stroke:none;fill-rule:nonzero;fill:rgb(0%,19.599915%,58.399963%);fill-opacity:1;" d="M 583.886719 36.402344 C 583.886719 50.519531 570.996094 52.035156 559.996094 52.164063 C 559.316406 52.171875 558.742188 52.171875 558.125 52.171875 L 562.507813 27.007813 L 562.753906 27.007813 C 572.351563 27.007813 583.886719 27.140625 583.886719 36.402344 M 608.859375 113.371094 L 581.820313 72.4375 C 597.886719 67.578125 610.753906 52.921875 612.28125 36.636719 C 613.449219 24.574219 607.632813 13.589844 597.09375 7.984375 C 586.464844 2.359375 572.941406 2.359375 562.074219 2.359375 L 538.625 2.359375 L 538.007813 5.851563 L 518.773438 114.964844 L 517.898438 119.925781 L 545.84375 119.925781 L 546.457031 116.433594 L 553.132813 78.589844 L 577.871094 117.949219 L 579.113281 119.925781 L 613.191406 119.925781 "/>
</g>
<path style=" stroke:none;fill-rule:nonzero;fill:rgb(100%,7.798767%,4.299927%);fill-opacity:1;" d="M 323.515625 2.710938 L 302.089844 118.558594 L 0 118.558594 L 20.3125 2.703125 Z M 323.515625 2.710938 "/>
<path style=" stroke:none;fill-rule:nonzero;fill:rgb(0%,19.599915%,58.399963%);fill-opacity:1;" d="M 320.285156 141.847656 L 319.550781 147.550781 L 320.714844 147.550781 C 322.636719 147.550781 323.960938 147.316406 324.6875 146.84375 C 325.417969 146.375 325.78125 145.582031 325.78125 144.464844 C 325.78125 143.503906 325.484375 142.828125 324.882813 142.433594 C 324.28125 142.042969 323.121094 141.847656 321.394531 141.847656 Z M 318.359375 156.59375 L 320.394531 156.59375 C 321.320313 156.59375 322.011719 156.5625 322.46875 156.496094 C 322.925781 156.433594 323.324219 156.324219 323.664063 156.179688 C 324.210938 155.929688 324.640625 155.542969 324.953125 155.015625 C 325.265625 154.488281 325.421875 153.886719 325.421875 153.199219 C 325.421875 152.140625 325.09375 151.390625 324.433594 150.957031 C 323.773438 150.523438 322.511719 150.308594 320.644531 150.308594 L 319.179688 150.308594 Z M 314.84375 159.378906 L 317.503906 139.105469 L 321.878906 139.105469 C 323.464844 139.105469 324.621094 139.195313 325.347656 139.375 C 326.070313 139.554688 326.691406 139.863281 327.210938 140.296875 C 327.726563 140.738281 328.117188 141.273438 328.386719 141.894531 C 328.652344 142.519531 328.789063 143.203125 328.789063 143.949219 C 328.789063 145.234375 328.460938 146.304688 327.804688 147.15625 C 327.148438 148.011719 326.230469 148.558594 325.050781 148.796875 C 326.195313 149.121094 327.070313 149.664063 327.679688 150.425781 C 328.289063 151.1875 328.59375 152.128906 328.59375 153.257813 C 328.59375 154.308594 328.386719 155.261719 327.964844 156.117188 C 327.542969 156.96875 326.941406 157.671875 326.15625 158.214844 C 325.539063 158.640625 324.773438 158.9375 323.863281 159.113281 C 322.957031 159.289063 321.429688 159.378906 319.289063 159.378906 "/>
<path style=" stroke:none;fill-rule:nonzero;fill:rgb(0%,19.599915%,58.399963%);fill-opacity:1;" d="M 335.4375 151.886719 L 341.363281 151.886719 L 339.796875 146.875 C 339.722656 146.632813 339.644531 146.316406 339.5625 145.917969 C 339.480469 145.519531 339.378906 145 339.257813 144.351563 C 339.054688 144.832031 338.855469 145.289063 338.65625 145.71875 C 338.457031 146.144531 338.261719 146.550781 338.066406 146.929688 Z M 328.027344 159.378906 L 339.769531 138.300781 L 347.179688 159.378906 L 343.882813 159.378906 L 342.234375 154.585938 L 334.160156 154.585938 L 331.488281 159.378906 "/>
<path style=" stroke:none;fill-rule:nonzero;fill:rgb(0%,19.599915%,58.399963%);fill-opacity:1;" d="M 347.664063 159.378906 L 350.40625 138.300781 L 361.46875 150.984375 C 361.867188 151.449219 362.226563 151.886719 362.550781 152.300781 C 362.871094 152.71875 363.171875 153.128906 363.449219 153.535156 C 363.449219 153.109375 363.472656 152.660156 363.511719 152.183594 C 363.554688 151.707031 363.621094 151.109375 363.714844 150.390625 L 365.234375 139.105469 L 368.214844 139.105469 L 365.472656 160.167969 L 354.378906 147.496094 C 353.882813 146.925781 353.480469 146.441406 353.183594 146.050781 C 352.882813 145.65625 352.621094 145.28125 352.398438 144.921875 C 352.382813 145.546875 352.289063 146.507813 352.121094 147.800781 C 352.101563 147.929688 352.089844 148.027344 352.078125 148.09375 L 350.640625 159.378906 "/>
<path style=" stroke:none;fill-rule:nonzero;fill:rgb(0%,19.599915%,58.399963%);fill-opacity:1;" d="M 387.128906 140.433594 L 386.617188 143.894531 C 385.835938 143.074219 384.980469 142.460938 384.0625 142.0625 C 383.144531 141.660156 382.144531 141.457031 381.066406 141.457031 C 379.957031 141.457031 378.929688 141.648438 377.984375 142.035156 C 377.039063 142.417969 376.234375 142.96875 375.566406 143.6875 C 374.78125 144.527344 374.179688 145.496094 373.761719 146.589844 C 373.339844 147.683594 373.132813 148.816406 373.132813 149.988281 C 373.132813 152.074219 373.769531 153.773438 375.046875 155.085938 C 376.328125 156.394531 377.980469 157.050781 380.015625 157.050781 C 381.027344 157.050781 382.003906 156.875 382.941406 156.523438 C 383.878906 156.175781 384.785156 155.652344 385.664063 154.960938 L 384.957031 158.835938 C 384.03125 159.199219 383.148438 159.46875 382.296875 159.648438 C 381.449219 159.828125 380.632813 159.917969 379.847656 159.917969 C 376.894531 159.917969 374.507813 159.015625 372.695313 157.210938 C 370.882813 155.40625 369.972656 153.035156 369.972656 150.101563 C 369.972656 148.476563 370.261719 146.929688 370.839844 145.46875 C 371.414063 144.003906 372.234375 142.742188 373.296875 141.679688 C 374.285156 140.691406 375.414063 139.941406 376.691406 139.421875 C 377.964844 138.90625 379.328125 138.648438 380.789063 138.648438 C 382.101563 138.648438 383.277344 138.796875 384.324219 139.089844 C 385.375 139.386719 386.308594 139.835938 387.128906 140.433594 "/>
<path style=" stroke:none;fill-rule:nonzero;fill:rgb(0%,19.599915%,58.399963%);fill-opacity:1;" d="M 406.65625 148.578125 C 406.65625 146.445313 406.007813 144.722656 404.710938 143.417969 C 403.417969 142.113281 401.703125 141.457031 399.574219 141.457031 C 398.519531 141.457031 397.519531 141.65625 396.5625 142.054688 C 395.609375 142.453125 394.78125 143.019531 394.078125 143.757813 C 393.269531 144.589844 392.648438 145.535156 392.226563 146.597656 C 391.800781 147.65625 391.589844 148.769531 391.589844 149.933594 C 391.589844 152.046875 392.226563 153.761719 393.507813 155.078125 C 394.785156 156.390625 396.445313 157.050781 398.492188 157.050781 C 400.808594 157.050781 402.746094 156.242188 404.3125 154.621094 C 405.875 153 406.65625 150.984375 406.65625 148.578125 M 399.738281 138.621094 C 402.820313 138.621094 405.273438 139.515625 407.101563 141.3125 C 408.925781 143.109375 409.839844 145.511719 409.839844 148.519531 C 409.839844 150.136719 409.542969 151.65625 408.949219 153.085938 C 408.351563 154.511719 407.507813 155.75 406.410156 156.800781 C 405.347656 157.800781 404.121094 158.5625 402.726563 159.09375 C 401.335938 159.625 399.847656 159.890625 398.273438 159.890625 C 395.328125 159.890625 392.953125 158.984375 391.144531 157.175781 C 389.335938 155.367188 388.433594 152.988281 388.433594 150.042969 C 388.433594 148.402344 388.722656 146.863281 389.304688 145.425781 C 389.886719 143.992188 390.71875 142.75 391.808594 141.707031 C 392.84375 140.71875 394.046875 139.957031 395.421875 139.421875 C 396.796875 138.886719 398.234375 138.621094 399.738281 138.621094 "/>
<path style=" stroke:none;fill-rule:nonzero;fill:rgb(0%,19.599915%,58.399963%);fill-opacity:1;" d="M 422.957031 156.484375 L 424.117188 156.484375 C 426.398438 156.484375 428.015625 156.378906 428.964844 156.164063 C 429.917969 155.953125 430.738281 155.597656 431.429688 155.097656 C 432.363281 154.425781 433.089844 153.523438 433.605469 152.398438 C 434.121094 151.273438 434.382813 150.035156 434.382813 148.6875 C 434.382813 147.523438 434.171875 146.476563 433.757813 145.550781 C 433.34375 144.621094 432.746094 143.863281 431.972656 143.273438 C 431.371094 142.8125 430.691406 142.484375 429.933594 142.289063 C 429.179688 142.097656 427.9375 142 426.210938 142 L 424.851563 142 Z M 419.410156 159.378906 L 422.070313 139.105469 L 426.375 139.105469 C 428.621094 139.105469 430.28125 139.246094 431.359375 139.527344 C 432.441406 139.808594 433.421875 140.28125 434.296875 140.945313 C 435.386719 141.777344 436.222656 142.847656 436.804688 144.152344 C 437.386719 145.457031 437.675781 146.925781 437.675781 148.546875 C 437.675781 149.980469 437.445313 151.347656 436.992188 152.648438 C 436.53125 153.949219 435.882813 155.085938 435.03125 156.054688 C 434.429688 156.746094 433.753906 157.332031 433.003906 157.804688 C 432.25 158.28125 431.429688 158.644531 430.546875 158.894531 C 429.953125 159.058594 429.324219 159.179688 428.652344 159.261719 C 427.984375 159.335938 427.152344 159.378906 426.152344 159.378906 L 424.203125 159.378906 "/>
<path style=" stroke:none;fill-rule:nonzero;fill:rgb(0%,19.599915%,58.399963%);fill-opacity:1;" d="M 439.4375 159.378906 L 442.097656 139.105469 L 453.476563 139.105469 L 453.117188 141.972656 L 444.882813 141.972656 L 444.230469 147.066406 L 452.4375 147.066406 L 452.0625 149.90625 L 443.828125 149.90625 L 442.984375 156.457031 L 451.21875 156.457031 L 450.816406 159.378906 "/>
<path style=" stroke:none;fill-rule:nonzero;fill:rgb(0%,19.599915%,58.399963%);fill-opacity:1;" d="M 479.636719 140.433594 L 479.125 143.894531 C 478.339844 143.074219 477.488281 142.460938 476.570313 142.0625 C 475.652344 141.660156 474.652344 141.457031 473.570313 141.457031 C 472.464844 141.457031 471.4375 141.648438 470.488281 142.035156 C 469.542969 142.417969 468.738281 142.96875 468.074219 143.6875 C 467.289063 144.527344 466.6875 145.496094 466.265625 146.589844 C 465.847656 147.683594 465.636719 148.816406 465.636719 149.988281 C 465.636719 152.074219 466.277344 153.773438 467.554688 155.085938 C 468.832031 156.394531 470.488281 157.050781 472.519531 157.050781 C 473.535156 157.050781 474.511719 156.875 475.449219 156.523438 C 476.386719 156.175781 477.292969 155.652344 478.167969 154.960938 L 477.460938 158.835938 C 476.539063 159.199219 475.652344 159.46875 474.804688 159.648438 C 473.953125 159.828125 473.136719 159.917969 472.351563 159.917969 C 469.398438 159.917969 467.015625 159.015625 465.199219 157.210938 C 463.386719 155.40625 462.480469 153.035156 462.480469 150.101563 C 462.480469 148.476563 462.769531 146.929688 463.34375 145.46875 C 463.921875 144.003906 464.742188 142.742188 465.804688 141.679688 C 466.789063 140.691406 467.921875 139.941406 469.195313 139.421875 C 470.46875 138.90625 471.835938 138.648438 473.296875 138.648438 C 474.605469 138.648438 475.785156 138.796875 476.832031 139.089844 C 477.878906 139.386719 478.816406 139.835938 479.636719 140.433594 "/>
<path style=" stroke:none;fill-rule:nonzero;fill:rgb(0%,19.599915%,58.399963%);fill-opacity:1;" d="M 499.160156 148.578125 C 499.160156 146.445313 498.515625 144.722656 497.21875 143.417969 C 495.921875 142.113281 494.210938 141.457031 492.078125 141.457031 C 491.027344 141.457031 490.023438 141.65625 489.070313 142.054688 C 488.113281 142.453125 487.285156 143.019531 486.585938 143.757813 C 485.773438 144.589844 485.15625 145.535156 484.730469 146.597656 C 484.308594 147.65625 484.097656 148.769531 484.097656 149.933594 C 484.097656 152.046875 484.734375 153.761719 486.011719 155.078125 C 487.289063 156.390625 488.949219 157.050781 491 157.050781 C 493.3125 157.050781 495.253906 156.242188 496.816406 154.621094 C 498.382813 153 499.160156 150.984375 499.160156 148.578125 M 492.246094 138.621094 C 495.324219 138.621094 497.78125 139.515625 499.605469 141.3125 C 501.433594 143.109375 502.347656 145.511719 502.347656 148.519531 C 502.347656 150.136719 502.050781 151.65625 501.453125 153.085938 C 500.859375 154.511719 500.011719 155.75 498.914063 156.800781 C 497.851563 157.800781 496.628906 158.5625 495.234375 159.09375 C 493.839844 159.625 492.355469 159.890625 490.777344 159.890625 C 487.835938 159.890625 485.460938 158.984375 483.652344 157.175781 C 481.84375 155.367188 480.9375 152.988281 480.9375 150.042969 C 480.9375 148.402344 481.226563 146.863281 481.808594 145.425781 C 482.390625 143.992188 483.226563 142.75 484.316406 141.707031 C 485.347656 140.71875 486.554688 139.957031 487.925781 139.421875 C 489.300781 138.886719 490.742188 138.621094 492.246094 138.621094 "/>
<path style=" stroke:none;fill-rule:nonzero;fill:rgb(0%,19.599915%,58.399963%);fill-opacity:1;" d="M 502.902344 155.886719 L 505.132813 154.046875 C 505.6875 155.152344 506.28125 155.953125 506.917969 156.449219 C 507.554688 156.941406 508.300781 157.191406 509.160156 157.191406 C 510.230469 157.191406 511.101563 156.875 511.765625 156.25 C 512.429688 155.621094 512.761719 154.804688 512.761719 153.796875 C 512.761719 153.085938 512.585938 152.484375 512.234375 151.988281 C 511.882813 151.496094 511.265625 150.992188 510.378906 150.472656 C 510.195313 150.363281 509.921875 150.207031 509.5625 150.003906 C 508.046875 149.164063 507.027344 148.449219 506.503906 147.871094 C 506.121094 147.453125 505.839844 146.976563 505.648438 146.429688 C 505.460938 145.886719 505.367188 145.292969 505.367188 144.65625 C 505.367188 142.875 505.9375 141.425781 507.085938 140.300781 C 508.230469 139.179688 509.722656 138.617188 511.570313 138.617188 C 512.816406 138.617188 513.910156 138.875 514.84375 139.382813 C 515.78125 139.890625 516.554688 140.648438 517.164063 141.652344 L 515.226563 143.4375 C 514.773438 142.699219 514.269531 142.152344 513.714844 141.792969 C 513.164063 141.429688 512.546875 141.25 511.859375 141.25 C 510.863281 141.25 510.054688 141.542969 509.4375 142.125 C 508.820313 142.703125 508.511719 143.457031 508.511719 144.378906 C 508.511719 145.488281 509.402344 146.523438 511.183594 147.484375 C 511.628906 147.714844 511.964844 147.898438 512.191406 148.035156 C 513.558594 148.832031 514.527344 149.65625 515.09375 150.507813 C 515.664063 151.363281 515.945313 152.40625 515.945313 153.644531 C 515.945313 155.566406 515.328125 157.089844 514.089844 158.222656 C 512.855469 159.351563 511.171875 159.917969 509.050781 159.917969 C 507.609375 159.917969 506.378906 159.585938 505.359375 158.921875 C 504.339844 158.257813 503.519531 157.246094 502.902344 155.886719 "/>
<path style=" stroke:none;fill-rule:nonzero;fill:rgb(0%,19.599915%,58.399963%);fill-opacity:1;" d="M 521.5 159.378906 L 523.800781 142.027344 L 518.328125 142.027344 L 518.71875 139.105469 L 532.5625 139.105469 L 532.164063 142.027344 L 526.996094 142.027344 L 524.699219 159.378906 "/>
<path style=" stroke:none;fill-rule:nonzero;fill:rgb(0%,19.599915%,58.399963%);fill-opacity:1;" d="M 534.976563 151.886719 L 540.902344 151.886719 L 539.335938 146.875 C 539.261719 146.632813 539.183594 146.316406 539.101563 145.917969 C 539.019531 145.519531 538.914063 145 538.796875 144.351563 C 538.59375 144.832031 538.394531 145.289063 538.195313 145.71875 C 537.996094 146.144531 537.800781 146.550781 537.605469 146.929688 Z M 527.566406 159.378906 L 539.308594 138.300781 L 546.71875 159.378906 L 543.421875 159.378906 L 541.773438 154.585938 L 533.699219 154.585938 L 531.027344 159.378906 "/>
<path style=" stroke:none;fill-rule:nonzero;fill:rgb(0%,19.599915%,58.399963%);fill-opacity:1;" d="M 559.609375 148.121094 L 560.246094 148.121094 C 562.242188 148.121094 563.597656 147.871094 564.320313 147.371094 C 565.039063 146.875 565.398438 146.015625 565.398438 144.796875 C 565.398438 143.761719 565.09375 143.039063 564.492188 142.621094 C 563.886719 142.207031 562.707031 142 560.953125 142 L 560.441406 142 Z M 558.144531 159.378906 L 555 159.378906 L 557.660156 139.105469 L 561.3125 139.105469 C 562.929688 139.105469 564.089844 139.195313 564.804688 139.382813 C 565.515625 139.566406 566.144531 139.878906 566.703125 140.324219 C 567.320313 140.804688 567.792969 141.402344 568.121094 142.125 C 568.445313 142.84375 568.609375 143.640625 568.609375 144.519531 C 568.609375 146.191406 568.152344 147.550781 567.238281 148.605469 C 566.328125 149.65625 565.035156 150.316406 563.363281 150.585938 L 568.972656 159.378906 L 565.398438 159.378906 L 560.039063 150.695313 L 559.304688 150.695313 "/>
<path style=" stroke:none;fill-rule:nonzero;fill:rgb(0%,19.599915%,58.399963%);fill-opacity:1;" d="M 570.289063 159.378906 L 572.945313 139.105469 L 576.1875 139.105469 L 573.488281 159.378906 Z M 570.289063 159.378906 "/>
<path style=" stroke:none;fill-rule:nonzero;fill:rgb(0%,19.599915%,58.399963%);fill-opacity:1;" d="M 595.117188 140.433594 L 594.605469 143.894531 C 593.820313 143.074219 592.96875 142.460938 592.050781 142.0625 C 591.132813 141.660156 590.132813 141.457031 589.054688 141.457031 C 587.945313 141.457031 586.917969 141.648438 585.972656 142.035156 C 585.023438 142.417969 584.21875 142.96875 583.554688 143.6875 C 582.769531 144.527344 582.167969 145.496094 581.746094 146.589844 C 581.328125 147.683594 581.117188 148.816406 581.117188 149.988281 C 581.117188 152.074219 581.757813 153.773438 583.035156 155.085938 C 584.3125 156.394531 585.96875 157.050781 588 157.050781 C 589.015625 157.050781 589.992188 156.875 590.929688 156.523438 C 591.863281 156.175781 592.773438 155.652344 593.648438 154.960938 L 592.941406 158.835938 C 592.019531 159.199219 591.132813 159.46875 590.285156 159.648438 C 589.433594 159.828125 588.617188 159.917969 587.835938 159.917969 C 584.878906 159.917969 582.496094 159.015625 580.679688 157.210938 C 578.867188 155.40625 577.960938 153.035156 577.960938 150.101563 C 577.960938 148.476563 578.246094 146.929688 578.824219 145.46875 C 579.402344 144.003906 580.222656 142.742188 581.28125 141.679688 C 582.269531 140.691406 583.402344 139.941406 584.675781 139.421875 C 585.949219 138.90625 587.316406 138.648438 588.773438 138.648438 C 590.085938 138.648438 591.265625 138.796875 592.3125 139.089844 C 593.359375 139.386719 594.296875 139.835938 595.117188 140.433594 "/>
<path style=" stroke:none;fill-rule:nonzero;fill:rgb(0%,19.599915%,58.399963%);fill-opacity:1;" d="M 600.90625 151.886719 L 606.832031 151.886719 L 605.265625 146.875 C 605.195313 146.632813 605.117188 146.316406 605.03125 145.917969 C 604.949219 145.519531 604.847656 145 604.726563 144.351563 C 604.523438 144.832031 604.324219 145.289063 604.125 145.71875 C 603.925781 146.144531 603.730469 146.550781 603.535156 146.929688 Z M 593.496094 159.378906 L 605.242188 138.300781 L 612.648438 159.378906 L 609.351563 159.378906 L 607.703125 154.585938 L 599.632813 154.585938 L 596.960938 159.378906 "/>
<path style=" stroke:none;fill-rule:nonzero;fill:rgb(100%,7.798767%,4.299927%);fill-opacity:1;" d="M 159.304688 156.863281 L 161.535156 155.023438 C 162.089844 156.128906 162.683594 156.929688 163.320313 157.425781 C 163.957031 157.917969 164.703125 158.164063 165.5625 158.164063 C 166.636719 158.164063 167.503906 157.851563 168.167969 157.222656 C 168.832031 156.59375 169.164063 155.777344 169.164063 154.773438 C 169.164063 154.0625 168.988281 153.460938 168.636719 152.964844 C 168.285156 152.46875 167.667969 151.964844 166.78125 151.449219 C 166.597656 151.339844 166.324219 151.179688 165.964844 150.976563 C 164.453125 150.136719 163.429688 149.425781 162.90625 148.84375 C 162.527344 148.429688 162.242188 147.949219 162.054688 147.40625 C 161.863281 146.859375 161.769531 146.269531 161.769531 145.632813 C 161.769531 143.851563 162.34375 142.398438 163.488281 141.277344 C 164.632813 140.15625 166.128906 139.59375 167.972656 139.59375 C 169.21875 139.59375 170.3125 139.847656 171.246094 140.355469 C 172.183594 140.863281 172.960938 141.621094 173.566406 142.628906 L 171.628906 144.414063 C 171.175781 143.675781 170.675781 143.125 170.121094 142.765625 C 169.566406 142.40625 168.949219 142.226563 168.265625 142.226563 C 167.265625 142.226563 166.460938 142.515625 165.839844 143.097656 C 165.222656 143.679688 164.914063 144.433594 164.914063 145.355469 C 164.914063 146.464844 165.804688 147.496094 167.585938 148.457031 C 168.027344 148.6875 168.367188 148.875 168.597656 149.011719 C 169.964844 149.804688 170.929688 150.628906 171.496094 151.484375 C 172.066406 152.335938 172.347656 153.382813 172.347656 154.621094 C 172.347656 156.539063 171.730469 158.066406 170.492188 159.195313 C 169.257813 160.328125 167.578125 160.894531 165.453125 160.894531 C 164.011719 160.894531 162.78125 160.5625 161.761719 159.894531 C 160.742188 159.230469 159.921875 158.21875 159.304688 156.863281 "/>
<path style=" stroke:none;fill-rule:nonzero;fill:rgb(100%,7.798767%,4.299927%);fill-opacity:1;" d="M 193.882813 149.550781 C 193.882813 147.417969 193.234375 145.699219 191.9375 144.394531 C 190.644531 143.085938 188.929688 142.433594 186.800781 142.433594 C 185.746094 142.433594 184.742188 142.632813 183.789063 143.03125 C 182.835938 143.425781 182.007813 143.992188 181.304688 144.734375 C 180.496094 145.5625 179.878906 146.511719 179.453125 147.570313 C 179.027344 148.632813 178.816406 149.746094 178.816406 150.90625 C 178.816406 153.023438 179.453125 154.738281 180.730469 156.054688 C 182.011719 157.367188 183.671875 158.027344 185.71875 158.027344 C 188.035156 158.027344 189.972656 157.214844 191.535156 155.597656 C 193.101563 153.976563 193.882813 151.960938 193.882813 149.550781 M 186.964844 139.59375 C 190.046875 139.59375 192.5 140.492188 194.328125 142.289063 C 196.152344 144.085938 197.066406 146.488281 197.066406 149.496094 C 197.066406 151.113281 196.769531 152.632813 196.175781 154.058594 C 195.578125 155.484375 194.734375 156.726563 193.636719 157.777344 C 192.574219 158.773438 191.347656 159.539063 189.953125 160.070313 C 188.5625 160.601563 187.074219 160.863281 185.496094 160.863281 C 182.554688 160.863281 180.179688 159.960938 178.371094 158.152344 C 176.5625 156.34375 175.65625 153.964844 175.65625 151.019531 C 175.65625 149.375 175.949219 147.835938 176.53125 146.402344 C 177.109375 144.964844 177.945313 143.726563 179.035156 142.683594 C 180.066406 141.695313 181.273438 140.933594 182.648438 140.398438 C 184.023438 139.863281 185.460938 139.59375 186.964844 139.59375 "/>
<g clip-path="url(#clip2)" clip-rule="nonzero">
<path style=" stroke:none;fill-rule:nonzero;fill:rgb(100%,7.798767%,4.299927%);fill-opacity:1;" d="M 218.324219 150.035156 L 218.324219 149.550781 C 218.324219 149.144531 218.332031 148.753906 218.351563 148.375 C 218.371094 147.996094 218.398438 147.613281 218.433594 147.222656 C 218.316406 147.59375 218.152344 147.972656 217.941406 148.359375 C 217.734375 148.75 217.433594 149.238281 217.035156 149.828125 L 209.726563 161.171875 L 205.527344 149.855469 C 205.425781 149.597656 205.316406 149.273438 205.195313 148.878906 C 205.074219 148.488281 204.914063 147.933594 204.710938 147.222656 C 204.675781 147.796875 204.480469 148.691406 204.128906 149.910156 L 204.117188 149.96875 L 201.070313 160.351563 L 197.84375 160.351563 L 204.503906 139.222656 L 209.417969 152.347656 C 209.667969 152.996094 209.871094 153.550781 210.023438 154.015625 C 210.175781 154.484375 210.3125 154.945313 210.429688 155.394531 C 210.671875 154.871094 210.929688 154.347656 211.214844 153.832031 C 211.492188 153.3125 211.800781 152.800781 212.132813 152.292969 L 220.679688 139.222656 L 221.605469 160.351563 L 218.460938 160.351563 "/>
</g>
<path style=" stroke:none;fill-rule:nonzero;fill:rgb(100%,7.798767%,4.299927%);fill-opacity:1;" d="M 243.085938 149.550781 C 243.085938 147.417969 242.4375 145.699219 241.140625 144.394531 C 239.84375 143.085938 238.132813 142.433594 236 142.433594 C 234.949219 142.433594 233.945313 142.632813 232.992188 143.03125 C 232.035156 143.425781 231.210938 143.992188 230.507813 144.734375 C 229.695313 145.5625 229.078125 146.511719 228.652344 147.570313 C 228.230469 148.632813 228.019531 149.746094 228.019531 150.90625 C 228.019531 153.023438 228.65625 154.738281 229.933594 156.054688 C 231.210938 157.367188 232.871094 158.027344 234.921875 158.027344 C 237.234375 158.027344 239.175781 157.214844 240.738281 155.597656 C 242.300781 153.976563 243.085938 151.960938 243.085938 149.550781 M 236.167969 139.59375 C 239.246094 139.59375 241.703125 140.492188 243.527344 142.289063 C 245.355469 144.085938 246.269531 146.488281 246.269531 149.496094 C 246.269531 151.113281 245.972656 152.632813 245.375 154.058594 C 244.78125 155.484375 243.933594 156.726563 242.835938 157.777344 C 241.773438 158.773438 240.546875 159.539063 239.15625 160.070313 C 237.761719 160.601563 236.277344 160.863281 234.699219 160.863281 C 231.757813 160.863281 229.378906 159.960938 227.574219 158.152344 C 225.765625 156.34375 224.859375 153.964844 224.859375 151.019531 C 224.859375 149.375 225.152344 147.835938 225.730469 146.402344 C 226.3125 144.964844 227.148438 143.726563 228.238281 142.683594 C 229.269531 141.695313 230.472656 140.933594 231.847656 140.398438 C 233.222656 139.863281 234.664063 139.59375 236.167969 139.59375 "/>
<path style=" stroke:none;fill-rule:nonzero;fill:rgb(100%,7.798767%,4.299927%);fill-opacity:1;" d="M 247.390625 156.863281 L 249.621094 155.023438 C 250.175781 156.128906 250.769531 156.929688 251.40625 157.425781 C 252.042969 157.917969 252.789063 158.164063 253.648438 158.164063 C 254.71875 158.164063 255.589844 157.851563 256.253906 157.222656 C 256.917969 156.59375 257.25 155.777344 257.25 154.773438 C 257.25 154.0625 257.074219 153.460938 256.722656 152.964844 C 256.371094 152.46875 255.753906 151.964844 254.867188 151.449219 C 254.683594 151.339844 254.410156 151.179688 254.050781 150.976563 C 252.535156 150.136719 251.515625 149.425781 250.992188 148.84375 C 250.613281 148.429688 250.328125 147.949219 250.140625 147.40625 C 249.949219 146.859375 249.855469 146.269531 249.855469 145.632813 C 249.855469 143.851563 250.429688 142.398438 251.570313 141.277344 C 252.71875 140.15625 254.210938 139.59375 256.058594 139.59375 C 257.304688 139.59375 258.394531 139.847656 259.332031 140.355469 C 260.269531 140.863281 261.042969 141.621094 261.652344 142.628906 L 259.714844 144.414063 C 259.261719 143.675781 258.757813 143.125 258.203125 142.765625 C 257.652344 142.40625 257.03125 142.226563 256.347656 142.226563 C 255.351563 142.226563 254.542969 142.515625 253.925781 143.097656 C 253.308594 143.679688 253 144.433594 253 145.355469 C 253 146.464844 253.890625 147.496094 255.671875 148.457031 C 256.113281 148.6875 256.449219 148.875 256.683594 149.011719 C 258.046875 149.804688 259.015625 150.628906 259.582031 151.484375 C 260.152344 152.335938 260.433594 153.382813 260.433594 154.621094 C 260.433594 156.539063 259.816406 158.066406 258.578125 159.195313 C 257.34375 160.328125 255.660156 160.894531 253.539063 160.894531 C 252.097656 160.894531 250.867188 160.5625 249.847656 159.894531 C 248.828125 159.230469 248.007813 158.21875 247.390625 156.863281 "/>
<path style=" stroke:none;fill-rule:nonzero;fill:rgb(100%,7.798767%,4.299927%);fill-opacity:1;" d="M 271.722656 160.351563 L 274.382813 140.078125 L 285.761719 140.078125 L 285.402344 142.945313 L 277.167969 142.945313 L 276.515625 148.042969 L 284.722656 148.042969 L 284.347656 150.882813 L 276.113281 150.882813 L 275.269531 157.429688 L 283.503906 157.429688 L 283.101563 160.351563 "/>
<path style=" stroke:none;fill-rule:nonzero;fill:rgb(100%,7.798767%,4.299927%);fill-opacity:1;" d="M 287.148438 160.351563 L 289.808594 140.078125 L 292.992188 140.078125 L 290.746094 157.238281 L 298.324219 157.238281 L 297.894531 160.351563 "/>
</g>
</svg>
