<?xml version="1.0" encoding="UTF-8"?>
<svg xmlns="http://www.w3.org/2000/svg" xmlns:xlink="http://www.w3.org/1999/xlink" width="283.46pt" height="101.59pt" viewBox="0 0 283.46 101.59" version="1.1">
<defs>
<clipPath id="clip1">
  <path d="M 0 29 L 184 29 L 184 101.589844 L 0 101.589844 Z M 0 29 "/>
</clipPath>
<clipPath id="clip2">
  <path d="M 197 0 L 283.460938 0 L 283.460938 101 L 197 101 Z M 197 0 "/>
</clipPath>
</defs>
<g id="surface1">
<g clip-path="url(#clip1)" clip-rule="nonzero">
<path style=" stroke:none;fill-rule:evenodd;fill:rgb(0%,33.724976%,59.214783%);fill-opacity:1;" d="M 150.378906 58.210938 C 147.945313 58.210938 145.816406 58.113281 143.390625 58.210938 L 143.390625 43.210938 L 151.546875 43.210938 C 156.046875 43.210938 161.355469 44.410156 161.355469 50.710938 C 161.355469 57.710938 155.328125 58.210938 150.378906 58.210938 Z M 168.402344 69.121094 C 168.375 69.132813 168.347656 69.148438 168.320313 69.164063 L 168.300781 68.898438 L 168.402344 69.121094 C 175.28125 65.902344 179.535156 58.976563 179.535156 50.410156 C 179.535156 35.910156 169.09375 30.011719 157.394531 30.011719 L 125.632813 30.011719 L 125.632813 100.8125 L 143.402344 100.8125 L 143.421875 73.25 L 151.375 73.25 L 163.03125 100.757813 L 183.113281 100.757813 Z M 91.15625 87.367188 C 82.070313 87.367188 76.699219 79.371094 76.699219 65.773438 C 76.699219 51.652344 81.679688 43.453125 91.167969 43.453125 C 97.910156 43.453125 103.113281 47.144531 104.269531 54.769531 L 121.175781 54.769531 C 120.140625 37.722656 107.800781 29.230469 90.335938 29.230469 L 90.0625 29.230469 C 71.3125 29.230469 57.691406 43.140625 57.691406 65.460938 C 57.691406 87.78125 70.292969 101.589844 90.644531 101.589844 C 109.441406 101.589844 121.214844 91.296875 121.730469 73.128906 L 104.324219 73.128906 C 103.289063 82.78125 98.800781 87.367188 91.15625 87.367188 Z M 24.808594 87.925781 L 17.839844 87.925781 L 17.839844 70.820313 L 24.066406 70.820313 C 35.09375 70.820313 39.050781 72.515625 39.050781 78.980469 C 39.050781 85.238281 35.199219 87.925781 24.808594 87.925781 Z M 17.839844 43.003906 L 23.535156 43.003906 C 32.230469 43.003906 35.65625 45.371094 35.65625 50.671875 C 35.65625 55.867188 31.804688 57.671875 23.644531 57.671875 L 17.839844 57.671875 Z M 42.621094 62.761719 C 49.726563 60.425781 53.117188 55.761719 53.117188 48.445313 C 53.117188 42.613281 50.359375 37.3125 45.800781 34.34375 C 40.820313 31.164063 34.988281 30.105469 22.054688 30.105469 L 0 30.105469 L 0 100.824219 L 21.097656 100.824219 C 29.902344 100.824219 33.605469 100.613281 38.378906 99.871094 C 49.832031 98.066406 56.371094 90.328125 56.371094 79.9375 C 56.371094 70.921875 52.269531 65.199219 42.621094 62.761719 "/>
</g>
<g clip-path="url(#clip2)" clip-rule="nonzero">
<path style=" stroke:none;fill-rule:nonzero;fill:rgb(94.900513%,39.607239%,19.215393%);fill-opacity:1;" d="M 283.347656 42.558594 C 283.199219 40.953125 282.824219 39.722656 282.824219 39.722656 C 282.824219 39.722656 282.519531 38.949219 281.953125 37.832031 C 281.453125 36.820313 280.527344 35.796875 280.527344 35.796875 L 279.175781 34.492188 C 279.175781 34.492188 278.777344 34.125 277.722656 33.429688 C 276.675781 32.734375 276.050781 32.453125 276.050781 32.453125 C 276.050781 32.453125 275.070313 31.882813 273.402344 31.253906 C 271.234375 30.441406 269.269531 30.226563 269.269531 30.226563 L 210.914063 30.226563 C 210.914063 30.226563 209.378906 30.347656 207.78125 30.761719 C 206.183594 31.179688 204.964844 31.765625 204.964844 31.765625 C 204.964844 31.765625 204.585938 31.878906 203.898438 32.253906 C 203.210938 32.625 202.933594 32.839844 202.933594 32.839844 L 201.429688 34.066406 C 201.429688 34.066406 200.933594 34.488281 200.308594 35.3125 C 199.671875 36.140625 199.359375 36.640625 199.359375 36.640625 C 199.359375 36.640625 199.140625 36.992188 198.765625 37.710938 C 198.390625 38.429688 198.152344 39.0625 198.152344 39.0625 C 198.152344 39.0625 197.949219 39.449219 197.761719 40.257813 C 197.578125 41.066406 197.511719 41.59375 197.511719 41.59375 L 197.359375 43.972656 L 197.359375 44.433594 L 197.390625 75.390625 L 262.679688 75.390625 L 262.679688 79.925781 L 197.4375 79.925781 C 197.4375 80.421875 197.476563 81.726563 197.476563 83.726563 C 197.476563 85.722656 197.511719 87.183594 197.511719 87.949219 L 197.660156 90.0625 L 197.96875 91.101563 L 198 91.292969 L 198.414063 92.40625 L 198.945313 93.554688 L 199.585938 94.667969 L 200.300781 95.671875 C 200.300781 95.671875 201.269531 96.761719 202.277344 97.515625 C 203.289063 98.277344 204.332031 98.855469 204.332031 98.855469 C 204.332031 98.855469 204.910156 99.167969 205.644531 99.472656 C 206.375 99.773438 207.109375 99.96875 207.109375 99.96875 C 207.109375 99.96875 208.175781 100.234375 208.914063 100.371094 C 209.8125 100.53125 210.726563 100.585938 210.726563 100.585938 L 212.347656 100.699219 L 269.875 100.699219 C 269.875 100.699219 270.644531 100.691406 271.296875 100.589844 C 271.949219 100.496094 272.472656 100.390625 272.472656 100.390625 C 272.472656 100.390625 273.476563 100.183594 274.652344 99.699219 C 275.828125 99.21875 277.101563 98.511719 277.101563 98.511719 L 277.289063 98.398438 C 277.289063 98.398438 278.359375 97.742188 279.738281 96.324219 C 281.113281 94.902344 281.621094 93.789063 281.621094 93.789063 C 281.621094 93.789063 282.105469 92.960938 282.5625 91.628906 C 282.8125 90.894531 283.328125 89.699219 283.417969 88.410156 L 283.464844 72.511719 L 283.464844 56.886719 L 218.40625 56.886719 C 218.40625 56.886719 218.371094 54.578125 218.371094 53.925781 C 218.371094 53.269531 218.371094 52.617188 218.40625 52.039063 L 283.464844 52.039063 L 283.464844 45.550781 C 283.464844 45.550781 283.484375 44.15625 283.347656 42.558594 Z M 241.035156 26.472656 C 244.546875 26.472656 247.640625 25.175781 250.183594 22.582031 C 252.730469 19.988281 254 16.863281 254 13.214844 C 254 9.636719 252.695313 6.484375 250.148438 3.886719 C 247.605469 1.289063 244.546875 -0.00390625 241.035156 -0.00390625 C 237.464844 -0.00390625 234.402344 1.328125 231.859375 3.921875 C 229.347656 6.515625 228.074219 9.636719 228.074219 13.214844 C 228.074219 16.863281 229.347656 19.988281 231.894531 22.582031 C 234.402344 25.175781 237.464844 26.472656 241.035156 26.472656 "/>
</g>
</g>
</svg>
