<?xml version="1.0" encoding="UTF-8"?>
<!DOCTYPE svg PUBLIC "-//W3C//DTD SVG 1.1//EN" "http://www.w3.org/Graphics/SVG/1.1/DTD/svg11.dtd">
<!-- Creator: CorelDRAW X5 -->
<svg xmlns="http://www.w3.org/2000/svg" xml:space="preserve" width="50.7998mm" height="13.6896mm" style="shape-rendering:geometricPrecision; text-rendering:geometricPrecision; image-rendering:optimizeQuality; fill-rule:evenodd; clip-rule:evenodd"
viewBox="0 0 5080 1369"
 xmlns:xlink="http://www.w3.org/1999/xlink"
 xmlns:svg="http://www.w3.org/2000/svg">
 <defs>
  <style type="text/css">
   <![CDATA[
    .fil0 {fill:black}
    .fil2 {fill:#231F20;fill-rule:nonzero}
    .fil1 {fill:#FFF200;fill-rule:nonzero}
   ]]>
  </style>
 </defs>
 <g id="Layer_x0020_1">
  <metadata id="CorelCorpID_0Corel-Layer"/>
 </g>
 <g id="svg2">
  <metadata id="CorelCorpID_1Corel-Layer"/>
  <path class="fil0" d="M1662 167l12 0c45,0 98,8 98,65 0,56 -48,65 -98,65l-12 0 0 -129zm138 212c78,-12 118,-78 118,-151 0,-114 -81,-167 -187,-167l-207 0 0 534 139 0 0 -209 0 0 131 207 176 0 -169 -214z"/>
  <path class="fil0" d="M2196 330c53,0 81,36 81,81 0,45 -33,81 -81,81 -53,0 -81,-36 -81,-81 -5,-40 28,-81 81,-81zm207 -98l-131 0 0 33c-28,-33 -70,-48 -114,-48 -106,0 -184,90 -184,192 0,106 78,196 184,196 41,0 86,-17 109,-53l0 0 0 41 131 0 0 -361 5 0z"/>
  <path class="fil0" d="M2619 595l-131 0 0 -363 131 0 0 363zm5 -501c0,41 -33,73 -73,73 -41,0 -73,-33 -73,-73 3,-41 36,-73 78,-73 35,-2 68,31 68,73z"/>
  <path class="fil0" d="M2842 595l-126 0 0 -257 -45 0 0 -106 45 0 0 -45c0,-48 0,-86 36,-126 28,-41 78,-61 126,-61 20,0 36,3 56,12l0 109c-17,-8 -28,-12 -45,-12 -33,0 -45,20 -45,61l0 61 90 0 0 106 -90 0 0 257 -3 0z"/>
  <path class="fil0" d="M3121 595l-131 0 0 -257 -45 0 0 -106 45 0 0 -45c0,-48 0,-86 36,-126 33,-36 78,-56 126,-56 20,0 36,3 56,12l0 109c-17,-8 -28,-12 -45,-12 -33,0 -45,20 -45,61l0 61 90 0 0 106 -90 0 2 252 0 0z"/>
  <path class="fil0" d="M3356 363c8,-36 41,-56 78,-56 36,0 65,25 73,56l-151 0zm269 61c0,-123 -73,-204 -199,-204 -118,0 -204,73 -204,196 0,126 90,192 212,192 81,0 167,-41 184,-123l-123 0c-12,25 -33,33 -61,33 -53,0 -81,-28 -81,-81l273 0 -2 -13 0 0z"/>
  <path class="fil0" d="M3812 595l-131 0 0 -363 131 0 0 363zm8 -501c0,41 -33,73 -73,73 -41,0 -73,-33 -73,-73 0,-40 33,-73 73,-73 40,0 73,31 73,73z"/>
  <path class="fil0" d="M4139 326c-20,-12 -48,-20 -70,-20 -17,0 -41,8 -41,25 0,25 41,28 56,33 61,12 106,41 106,106 0,98 -86,134 -171,134 -53,0 -101,-17 -146,-41l45 -90c28,20 70,36 101,36 17,0 41,-8 41,-28 0,-28 -41,-28 -81,-41 -41,-12 -81,-33 -81,-98 0,-90 81,-131 159,-131 41,0 81,8 118,25l-36 90z"/>
  <path class="fil0" d="M4367 363c8,-36 41,-56 78,-56 36,0 65,25 73,56l-151 0zm269 61c0,-123 -73,-204 -199,-204 -118,0 -204,73 -204,196 0,126 90,192 212,192 81,0 167,-41 184,-123l-123 0c-12,25 -33,33 -61,33 -53,0 -81,-28 -81,-81l273 0 0 -13 -2 0z"/>
  <path class="fil0" d="M4823 282c33,-45 70,-61 118,-61 98,0 139,61 139,151l0 224 -131 0 0 -176c0,-36 3,-98 -56,-98 -53,0 -70,41 -70,86l0 187 -131 0 0 -366 131 0 0 53 0 0z"/>
  <path class="fil0" d="M1702 1149l12 0c45,0 114,-8 106,56 -8,61 -78,56 -118,56l-20 0 20 -113zm41 220c98,0 199,-36 215,-151 12,-73 -12,-126 -86,-139l0 0c45,-25 70,-61 78,-109 17,-101 -41,-139 -139,-139l-199 0 -86 537 217 0 0 2zm-8 -428l8 0c36,0 81,3 73,53 -8,45 -45,53 -81,53l-17 0 17 -106z"/>
  <path class="fil0" d="M2330 1168l-114 0 86 -171 0 0 28 171zm20 106l20 94 146 0 -118 -537 -151 0 -288 537 146 0 53 -94 192 0z"/>
  <polygon class="fil0" points="2647,830 2786,830 2990,1157 2990,1157 3043,830 3182,830 3096,1367 2962,1367 2758,1038 2758,1038 2705,1367 2566,1367 "/>
  <polygon class="fil0" points="3585,830 3756,830 3504,1082 3691,1364 3512,1364 3370,1132 3370,1132 3333,1364 3194,1364 3280,827 3419,827 3386,1047 3386,1047 "/>
  <polygon id="Rectangle-path_1_" class="fil1" points="38,1329 1268,1329 1268,99 38,99 "/>
  <path class="fil2" d="M0 61l0 1308 1308 0 0 -1308 -1308 0zm1268 1268l-1230 0 0 -1230 1230 0 0 1230z"/>
  <path id="Shape" class="fil2" d="M655 863l393 393 154 -154 -393 -391 76 -76 0 -154 55 -55 0 126 53 53 192 -192 51 51c-2,-90 -38,-174 -101,-235 -103,-99 -204,-41 -240,-7l-186 186 46 46 -103 101 -103 -103 46 -46 -184 -184c-35,-35 -138,-93 -240,7 -63,63 -98,148 -99,235l50 -50 192 191 53 -53 0 -128 55 55 0 152 76 76 -388 391 154 154 389 -389z"/>
 </g>
</svg>
