<?xml version="1.0" encoding="utf-8"?>
<svg version="1.1" id="Layer_1"
xmlns="http://www.w3.org/2000/svg"
xmlns:xlink="http://www.w3.org/1999/xlink"
width="1075px" height="532px"
xml:space="preserve">
<g id="PathID_49" transform="matrix(7.55341, 0, 0, 7.55341, 35.45, 344.85)" opacity="1">
<path style="fill:#000000;fill-opacity:1" d="M53.45 -25.4Q53.3 -24.95 51.85 -23.75Q48.15 -20.75 45.65 -20.75Q44 -20.75 43.35 -21.85Q42.7 -23 43.35 -24.85Q43.85 -26.35 46.6 -29.5Q47.8 -30.8 48.05 -31.6Q48.35 -32.55 47.4 -33.3Q46.5 -34.1 44.7 -34.1Q39.3 -34.1 33.25 -29.9Q27.2 -25.75 25.55 -20.9Q24.75 -18.55 25.7 -17.1Q26.65 -15.65 28.95 -15.65Q31.55 -15.65 34.9 -17.55Q38.25 -19.5 40.25 -22.15Q40.6 -22.8 41.1 -22.8Q41.9 -22.8 41.65 -22.05Q41.4 -21.4 40 -20Q38.65 -18.6 37.75 -18.3Q32.75 -14.25 28.4 -14.25Q25.4 -14.25 24.2 -16.1Q23 -17.95 24.05 -21Q25.9 -26.4 32.55 -30.95Q39.25 -35.55 45.3 -35.55Q48.1 -35.55 49.2 -34.1Q50.35 -32.7 49.55 -30.25Q48.95 -28.5 46.85 -26.05Q45.2 -24.1 45 -23.5Q44.55 -22.2 46.15 -22.2Q48.35 -22.2 52 -25.6Q52.55 -26.1 52.95 -26.1Q53.7 -26.1 53.45 -25.4M39.65 -14.3L39.05 -14.35L39 -14.3L34.9 -14.3L35.9 -15.7L40.75 -15.65Q50.55 -23.6 58.65 -27.35Q66.8 -31.1 74.45 -31.15Q76.3 -31.45 77.85 -31.45Q81.8 -31.45 81.25 -29.9Q80.95 -28.95 79.9 -28.95Q79.6 -28.95 78.25 -29.25Q75.85 -29.8 74.25 -29.8Q70.15 -28.65 66.05 -25.25Q61.95 -21.85 55.45 -14.15Q45.3 -2.05 35.65 -0.4Q37.1 -0.55 38.5 -0.55Q42.8 -0.55 46.65 -3.3Q50.45 -6 53.45 -9.1Q54 -9.7 54.4 -9.7Q55 -9.7 54.95 -9.15Q54.75 -8.55 50.6 -5Q46.8 -1.7 44.1 -0.45Q41.45 0.8 38.15 0.8Q36.3 0.8 34.05 0.3Q32.35 0.8 30.2 0.8Q28.3 0.8 28.65 -0.2Q29 -1.25 31.4 -1.25Q32.8 -1.25 34.4 -1Q38.25 -1.85 40.8 -3.85Q43.35 -5.9 51.7 -14.3L43 -14.3Q35.05 -8.1 30.8 -5.4Q20.8 0.9 13.8 0.9Q9.75 0.9 7.55 -1Q5.35 -2.95 6.3 -5.8Q6.85 -7.35 8.15 -8.45Q9.5 -9.55 10.95 -9.55Q13.1 -9.55 12.4 -7.5Q12.05 -6.5 11.1 -5.75Q10.15 -5.05 9.15 -5.05Q7.85 -5.05 8.05 -6.05Q8.2 -6.45 8.45 -6.75Q8.75 -7.15 8.6 -7.15Q8.35 -7.15 8.4 -7.4L8.35 -7.3L8.1 -6.7Q7.95 -6.35 8.05 -6.05L7.95 -5.8Q7.2 -3.65 9 -2.1Q10.85 -0.6 14.35 -0.6Q19.45 -0.6 27.45 -5.7Q29.15 -6.8 31.95 -8.8Q36.05 -12.15 39 -14.3L39.65 -14.3M72.35 -29.7Q66.55 -29.35 60.05 -26.05Q53.55 -22.75 44.2 -15.7L52.65 -15.7Q57.45 -20.95 63.05 -24.65Q69.4 -29.8 72.35 -29.7" />
</g>
<g id="PathID_50" transform="matrix(7.55341, 0, 0, 7.55341, 35.45, 344.85)" opacity="1">
</g>
<g id="PathID_51" transform="matrix(7.55341, 0, 0, 7.55341, 386.75, 344.85)" opacity="1">
<path style="fill:#000000;fill-opacity:1" d="M36.6 -25.8L18.35 -6.35Q14.65 -2.35 14.3 -1.4Q14.1 -0.8 14.55 -0.8Q16.5 -0.8 24.3 -8.35Q24.7 -8.8 25.1 -8.8Q25.8 -8.8 25.55 -8.1L25.1 -7.55L23.45 -6Q16.45 0.55 13.95 0.55Q12.55 0.55 12.05 -0.4Q11.55 -1.4 12.1 -2.95Q12.6 -4.4 13.85 -5.5Q8.3 0.55 5.9 0.55Q4.35 0.55 3.75 -0.7Q3.2 -1.95 3.85 -3.85Q5.3 -8.15 11.7 -11.55Q16.75 -14.3 19.2 -14.3Q21.25 -14.3 20.6 -12.3Q20.3 -11.5 19.8 -11.25L32.8 -25.9Q33.8 -25.7 34.5 -25.7L36.6 -25.8M19.1 -12.15Q19.4 -12.95 18.7 -12.95Q16.75 -12.95 11.8 -8.7Q6.9 -4.45 6.05 -1.9Q5.65 -0.8 6.45 -0.8Q8.15 -0.8 15.05 -7.4Q18.7 -10.95 19.1 -12.15" />
</g>
<g id="PathID_52" transform="matrix(7.55341, 0, 0, 7.55341, 386.75, 344.85)" opacity="1">
</g>
<g id="PathID_53" transform="matrix(7.55341, 0, 0, 7.55341, 520.15, 344.85)" opacity="1">
<path style="fill:#000000;fill-opacity:1" d="M22.3 -8.15Q22.15 -7.75 19.55 -5.85Q17.15 -3.8 15.3 -3.8Q12.9 -3.8 13.85 -6.45Q14.1 -7.2 14.55 -7.7Q13.5 -6.5 12.15 -5.2Q10.8 -3.95 6.75 0.35L5 0.3L2.95 0.35L9.55 -6.9Q14.1 -11.7 14.45 -12.75Q14.55 -12.95 14.45 -12.95Q13.4 -12.95 8.2 -7.8Q7.7 -7.3 7.1 -7.3Q6.65 -7.45 6.85 -8Q7 -8.3 7.25 -8.5L8 -9.25Q13.55 -14.3 15.15 -14.3Q17.65 -14.3 16.6 -11.25Q15.95 -9.25 13.05 -6.75Q13.9 -8.05 15.3 -8.95Q16.95 -11.1 18.95 -12.7Q21 -14.3 22.3 -14.3Q23.6 -14.3 23.2 -13.1Q22.7 -11.7 18.2 -9.35Q17.85 -9.1 16.3 -8.35L16.1 -8.25Q15.5 -7.3 15.3 -6.65Q14.75 -5.1 15.75 -5.1Q17.4 -5.1 20.5 -8Q21.45 -8.8 21.8 -8.8Q22.5 -8.8 22.3 -8.15" />
</g>
<g id="PathID_54" transform="matrix(7.55341, 0, 0, 7.55341, 520.15, 344.85)" opacity="1">
</g>
<g id="PathID_55" transform="matrix(7.55341, 0, 0, 7.55341, 627.8, 344.85)" opacity="1">
<path style="fill:#000000;fill-opacity:1" d="M19.85 -18.25Q19.5 -17.25 18.3 -16.35Q17.15 -15.45 16.05 -15.45Q14.45 -15.45 15 -17.05Q15.35 -18.05 16.55 -18.95Q17.75 -19.85 18.8 -19.85Q20.4 -19.85 19.85 -18.25M16.7 -8.1L16.25 -7.55L14.6 -6Q7.6 0.55 4.9 0.55Q3.5 0.55 2.9 -0.4Q2.35 -1.35 2.85 -2.8Q3.35 -4.35 6.15 -7.35L12.5 -14.1Q13.5 -13.9 13.85 -13.9Q14.5 -13.9 16.35 -14.1L7.3 -4.15Q5.55 -2.35 5.2 -1.4Q5 -0.8 5.6 -0.8Q7.5 -0.8 15.4 -8.3Q15.8 -8.8 16.25 -8.8Q16.95 -8.8 16.7 -8.1" />
</g>
<g id="PathID_56" transform="matrix(7.55341, 0, 0, 7.55341, 627.8, 344.85)" opacity="1">
</g>
<g id="PathID_57" transform="matrix(7.55341, 0, 0, 7.55341, 692.9, 344.85)" opacity="1">
<path style="fill:#000000;fill-opacity:1" d="M20.2 -11.7Q20.45 -11.85 20.6 -12.3L20.6 -12.45L21.5 -14.1Q22.5 -13.9 23 -13.9Q23.6 -13.9 25.35 -14.1L17.7 -5.9Q14.8 -2.5 14.4 -1.45Q14.2 -0.8 14.6 -0.8Q15.35 -0.8 18.15 -2.95Q20.95 -5.1 24.35 -8.4Q24.7 -8.8 25.1 -8.8Q25.8 -8.8 25.6 -8.15Q25.35 -7.45 20.35 -3.25Q15.85 0.55 13.95 0.55Q12.55 0.55 12.05 -0.4Q11.55 -1.4 12.05 -2.9Q12.55 -4.35 13.65 -5.25Q11.05 -2.05 9.2 -0.75Q7.35 0.55 5.9 0.55Q4.35 0.55 3.75 -0.7Q3.2 -1.95 3.85 -3.85Q5.55 -8.85 14.2 -12.65Q17.3 -14.3 19.25 -14.3Q21.25 -14.3 20.6 -12.45L20.2 -11.7M19.2 -12.2Q19.45 -12.95 18.85 -12.95Q16.85 -12.95 11.85 -8.7Q6.9 -4.45 6 -1.85Q5.65 -0.8 6.5 -0.8Q7.95 -0.8 13.85 -6.2Q18.65 -10.7 19.2 -12.2" />
</g>
<g id="PathID_58" transform="matrix(7.55341, 0, 0, 7.55341, 692.9, 344.85)" opacity="1">
</g>
<g id="PathID_59" transform="matrix(7.55341, 0, 0, 7.55341, 826.35, 344.85)" opacity="1">
<path style="fill:#000000;fill-opacity:1" d="M28.05 -8.15Q27.8 -7.45 22.6 -3.05Q18.3 0.55 16.35 0.55Q15 0.55 14.45 -0.45Q13.9 -1.45 14.4 -2.9Q14.85 -4.1 15.65 -5.1Q16.5 -6.15 19.2 -8.7Q22.25 -11.75 22.45 -12.4Q22.65 -12.95 22.1 -12.95Q18.85 -12.95 6.85 0.35L5.1 0.3L2.95 0.35L9.2 -6.45Q14.1 -11.55 14.5 -12.7Q14.6 -12.95 14.45 -12.95Q13.55 -12.95 8.3 -7.85Q7.8 -7.4 7.35 -7.3Q6.75 -7.3 6.85 -7.95Q7.05 -8.3 7.3 -8.5L7.6 -8.5Q13.6 -14.3 15.15 -14.3Q16.25 -14.3 16.65 -13.35Q17.05 -12.4 16.65 -11.2Q16.05 -9.5 13.5 -7.35Q16.8 -11.2 18.95 -12.75Q21.1 -14.3 22.6 -14.3Q23.95 -14.3 24.45 -13.2Q25 -12.15 24.5 -10.7Q23.9 -8.95 20.35 -5.4Q17 -2.1 16.7 -1.3Q16.55 -0.8 17 -0.8Q18.95 -0.8 26.7 -8.3Q27.1 -8.8 27.55 -8.8Q28.25 -8.8 28.05 -8.15" />
</g>
<g id="PathID_60" transform="matrix(7.55341, 0, 0, 7.55341, 826.35, 344.85)" opacity="1">
</g>
</svg>
