<?xml version="1.0" encoding="utf-8"?>
<svg version="1.1" id="Layer_1"
xmlns="http://www.w3.org/2000/svg"
xmlns:xlink="http://www.w3.org/1999/xlink"
width="2114px" height="977px"
xml:space="preserve">
<g id="PathID_13" transform="matrix(15.1662, 0, 0.310868, 12.5548, -29.05, 572.15)" opacity="1">
<linearGradient
id="LinearGradID_7" gradientUnits="userSpaceOnUse" gradientTransform="matrix(-3.64831e-009, -0.0834635, 0.0253906, -1.10986e-009, 70.6, -19)" spreadMethod ="pad" x1="-819.2" y1="0" x2="819.2" y2="0" >
<stop  offset="0.47451" style="stop-color:#002A94;stop-opacity:1" />
<stop  offset="0.54902" style="stop-color:#26C4F4;stop-opacity:1" />
</linearGradient>
<path style="fill:url(#LinearGradID_7) " d="M31.2 0.75Q29.25 0.7 27.25 -3.9Q25.9 -6.85 24.95 -10.7Q23.1 -10.4 18.9 -10.1Q15 -9.8 12.9 -9.45Q11.75 -6.7 8.95 -1.2Q7.8 0.55 5.85 0.55Q4.5 0.55 3.4 -0.35Q2.3 -1.3 2.3 -2.75Q2.3 -4 5.9 -11.4Q5.55 -12.15 5.6 -12.85Q5.7 -14.05 8.05 -14.7Q11.55 -20.85 15.9 -27.45Q22.15 -36.95 23.6 -36.95Q26.35 -36.95 27.3 -33.6L28.85 -25.6Q30.4 -18.4 32.6 -9.1Q32.75 -8.4 33.85 -5.8Q34.8 -3.65 34.8 -2.6Q34.8 -1.15 33.7 -0.15Q32.6 0.8 31.2 0.75M21.85 -24.9L16.45 -15.75Q17.6 -16 19.95 -16.15Q22.8 -16.3 23.5 -16.45L21.85 -24.9" />
</g>
<g id="PathID_14" transform="matrix(15.1662, 0, 0.310868, 12.5548, -29.05, 572.15)" opacity="1">
</g>
<g id="PathID_15" transform="matrix(15.1662, 0, 0.310868, 12.5548, 474, 572.15)" opacity="1">
<linearGradient
id="LinearGradID_8" gradientUnits="userSpaceOnUse" gradientTransform="matrix(-3.64831e-009, -0.0834635, 0.0253906, -1.10986e-009, 37.45, -19)" spreadMethod ="pad" x1="-819.2" y1="0" x2="819.2" y2="0" >
<stop  offset="0.47451" style="stop-color:#002A94;stop-opacity:1" />
<stop  offset="0.54902" style="stop-color:#26C4F4;stop-opacity:1" />
</linearGradient>
<path style="fill:url(#LinearGradID_8) " d="M20.85 -25.15Q21.15 -33.65 21.6 -36.9Q22 -39.85 24.85 -39.85Q26.3 -39.85 27.2 -38.85Q28.15 -37.9 28.15 -36.5Q28.15 -32.85 27.6 -25.6Q27.05 -18.35 27.05 -14.7Q27.05 -5.75 27.6 -2.75L27.7 -2Q27.7 -0.6 26.7 0.25Q25.7 1.15 24.35 1.15Q22.5 1.15 21.6 -0.5Q19.9 0.55 18.05 0.85Q16.25 1.15 14.3 1.15Q8.7 1.15 5 -2.4Q1.25 -6.05 1.25 -11.7Q1.25 -18.45 5 -22.6Q8.8 -26.75 14.95 -26.75Q16.8 -26.75 18.25 -26.35Q19.75 -25.95 20.85 -25.15M20.35 -17.25Q19.5 -18.85 18.15 -19.6Q16.85 -20.4 15.05 -20.4Q11.35 -20.4 9.5 -18.25Q7.7 -16.1 7.7 -11.85Q7.7 -9.15 9.65 -7.2Q11.65 -5.3 14.3 -5.3Q16.2 -5.3 17.2 -5.75Q17.9 -6.05 19.5 -7.35L20.35 -8.1Q20.3 -9.3 20.35 -17.25" />
</g>
<g id="PathID_16" transform="matrix(15.1662, 0, 0.310868, 12.5548, 474, 572.15)" opacity="1">
</g>
<g id="PathID_17" transform="matrix(15.1662, 0, 0.310868, 12.5548, 865.5, 572.15)" opacity="1">
<linearGradient
id="LinearGradID_9" gradientUnits="userSpaceOnUse" gradientTransform="matrix(-3.64831e-009, -0.0834635, 0.0253906, -1.10986e-009, 11.6, -19)" spreadMethod ="pad" x1="-819.2" y1="0" x2="819.2" y2="0" >
<stop  offset="0.47451" style="stop-color:#002A94;stop-opacity:1" />
<stop  offset="0.54902" style="stop-color:#26C4F4;stop-opacity:1" />
</linearGradient>
<path style="fill:url(#LinearGradID_9) " d="M23.55 -17.95Q23.3 -14.15 20.05 -14.15Q16.9 -14.15 16.9 -17.4L16.8 -19.95Q11.15 -19.05 8.75 -14.15L8.75 -1.6Q8.75 -0.15 7.75 0.75Q6.8 1.7 5.3 1.7Q3.75 1.7 2.9 0.7Q2.1 -0.2 2.1 -1.6L2.1 -17.95L2.15 -20.25L2.2 -22.6Q2.2 -24 3 -24.95Q3.85 -25.9 5.4 -25.9Q8.2 -25.9 8.75 -23.05Q13.15 -26.35 18.55 -26.35Q23.6 -26.35 23.6 -19.65L23.55 -17.95" />
</g>
<g id="PathID_18" transform="matrix(15.1662, 0, 0.310868, 12.5548, 865.5, 572.15)" opacity="1">
</g>
<g id="PathID_19" transform="matrix(15.1662, 0, 0.310868, 12.5548, 1172.85, 572.15)" opacity="1">
<linearGradient
id="LinearGradID_10" gradientUnits="userSpaceOnUse" gradientTransform="matrix(-3.64831e-009, -0.0834635, 0.0253906, -1.10986e-009, -8.6, -19)" spreadMethod ="pad" x1="-819.2" y1="0" x2="819.2" y2="0" >
<stop  offset="0.47451" style="stop-color:#002A94;stop-opacity:1" />
<stop  offset="0.54902" style="stop-color:#26C4F4;stop-opacity:1" />
</linearGradient>
<path style="fill:url(#LinearGradID_10) " d="M8.3 -30.05Q6.7 -30.05 5.5 -31.1Q4.35 -32.2 4.35 -33.75Q4.35 -35.3 5.5 -36.35Q6.7 -37.45 8.3 -37.45Q9.9 -37.45 11.05 -36.35Q12.25 -35.3 12.25 -33.75Q12.25 -32.2 11.05 -31.1Q9.9 -30.05 8.3 -30.05M10.4 -11.7L10.45 -7.15L10.55 -2.55Q10.55 -1.1 9.55 -0.15Q8.6 0.75 7.1 0.75Q5.6 0.75 4.6 -0.15Q3.65 -1.1 3.65 -2.55L3.55 -7.15L3.5 -11.7Q3.5 -13.95 3.75 -17.3Q4 -20.65 4 -22.85Q4 -24.3 4.95 -25.25Q5.95 -26.2 7.45 -26.2Q8.95 -26.2 9.9 -25.25Q10.9 -24.3 10.9 -22.85Q10.9 -20.65 10.65 -17.3Q10.4 -13.95 10.4 -11.7" />
</g>
<g id="PathID_20" transform="matrix(15.1662, 0, 0.310868, 12.5548, 1172.85, 572.15)" opacity="1">
</g>
<g id="PathID_21" transform="matrix(15.1662, 0, 0.310868, 12.5548, 1324.95, 572.15)" opacity="1">
<linearGradient
id="LinearGradID_11" gradientUnits="userSpaceOnUse" gradientTransform="matrix(-3.64831e-009, -0.0834635, 0.0253906, -1.10986e-009, -18.6, -19)" spreadMethod ="pad" x1="-819.2" y1="0" x2="819.2" y2="0" >
<stop  offset="0.47451" style="stop-color:#002A94;stop-opacity:1" />
<stop  offset="0.54902" style="stop-color:#26C4F4;stop-opacity:1" />
</linearGradient>
<path style="fill:url(#LinearGradID_11) " d="M24.1 1.4Q22.95 1.4 20.45 -0.8Q18.15 0.3 16.4 0.85Q14.65 1.4 13.4 1.4Q7.4 1.4 4.4 -1.8Q1.4 -5.05 1.4 -11.45Q1.4 -17.5 5.8 -21.8Q10.25 -26.1 16.45 -26.1Q18.85 -26.1 21.95 -24.75Q25.75 -23.15 25.75 -21Q25.75 -20.1 25.15 -19.45Q24.9 -18.45 24.75 -16.95Q24.65 -15.45 24.65 -13.45Q24.65 -8.7 25.3 -6.65L26.45 -4.05Q27.45 -1.9 27.45 -1.6Q27.45 -0.3 26.4 0.55Q25.4 1.4 24.1 1.4M17.9 -15.45L18 -17.3Q18.1 -18.35 18.35 -19.6Q17.85 -19.85 17.45 -19.95Q17.05 -20.1 16.8 -20.1Q13.4 -20.1 10.85 -17.4Q8.35 -14.75 8.35 -11.25Q8.35 -7.9 9.5 -6.2Q10.7 -4.55 13.1 -4.55Q14.65 -4.55 16 -5.05Q17.4 -5.55 18.65 -6.55Q17.9 -12.5 17.9 -15.45" />
</g>
<g id="PathID_22" transform="matrix(15.1662, 0, 0.310868, 12.5548, 1324.95, 572.15)" opacity="1">
</g>
<g id="PathID_23" transform="matrix(15.1662, 0, 0.310868, 12.5548, 1690.55, 572.15)" opacity="1">
<linearGradient
id="LinearGradID_12" gradientUnits="userSpaceOnUse" gradientTransform="matrix(-3.64831e-009, -0.0834635, 0.0253906, -1.10986e-009, -42.75, -19)" spreadMethod ="pad" x1="-819.2" y1="0" x2="819.2" y2="0" >
<stop  offset="0.47451" style="stop-color:#002A94;stop-opacity:1" />
<stop  offset="0.54902" style="stop-color:#26C4F4;stop-opacity:1" />
</linearGradient>
<path style="fill:url(#LinearGradID_12) " d="M22.2 1.8Q19.15 1.8 18.8 -1.2L18.1 -6.4Q17.75 -9.15 17.75 -11.6L17.8 -13.8L17.9 -16.05L17.95 -16.9L18 -18.1Q18 -20.2 17 -20.2Q14.85 -20.2 12.8 -17.4Q10.75 -14.65 9.55 -10.4Q9.55 -9.55 9.35 -8.15L9.25 -5.9L9.1 -3.75Q8.95 -2.3 8.95 -1.55Q8.95 -0.1 7.95 0.85Q6.95 1.8 5.45 1.8Q3.95 1.8 2.95 0.85Q2 -0.1 2 -1.55L1.85 -3.7L1.7 -5.85Q1.7 -8.3 2.05 -12.65Q2.4 -17.05 2.4 -19.5L2.3 -21.75L2.25 -24.05Q2.25 -25.45 3.25 -26.4Q4.25 -27.35 5.7 -27.35Q9 -27.35 9.2 -23.4L9.25 -23.1Q12.85 -26.8 16.9 -26.8Q21.65 -26.8 23.45 -22.8Q24.65 -20.15 24.65 -14.9L24.65 -13.1L24.6 -11.45Q24.6 -9.5 25.15 -6.4Q25.7 -3.35 25.7 -1.45Q25.7 -0.05 24.7 0.85Q23.7 1.8 22.2 1.8" />
</g>
<g id="PathID_24" transform="matrix(15.1662, 0, 0.310868, 12.5548, 1690.55, 572.15)" opacity="1">
</g>
</svg>
